<?xml version="1.0" standalone="no"?>
<!DOCTYPE svg PUBLIC "-//W3C//DTD SVG 20010904//EN"
 "http://www.w3.org/TR/2001/REC-SVG-20010904/DTD/svg10.dtd">
<svg version="1.0" xmlns="http://www.w3.org/2000/svg"
 width="259.000000pt" height="259.000000pt" viewBox="0 0 259.000000 259.000000"
 preserveAspectRatio="xMidYMid meet">
<metadata>
Created by potrace 1.14, written by Peter Selinger 2001-2017
</metadata>
<g transform="translate(0.000000,259.000000) scale(0.100000,-0.100000)"
fill="#000000" stroke="none">
<path d="M1050 2510 c-25 -9 -58 -23 -75 -30 -16 -7 -32 -14 -35 -15 -3 -1
-16 -7 -30 -13 -73 -31 -185 -78 -260 -108 -47 -19 -105 -44 -130 -56 -25 -11
-49 -21 -55 -22 -5 -2 -28 -10 -50 -20 -22 -10 -78 -34 -125 -53 -47 -19 -89
-38 -95 -41 -5 -4 -14 -7 -19 -7 -5 0 -11 -5 -13 -11 -2 -6 29 -27 68 -45 40
-19 104 -50 143 -71 l71 -36 38 -154 c21 -84 40 -160 42 -168 1 -8 28 -118 60
-245 31 -126 74 -304 97 -394 48 -199 44 -188 76 -204 15 -7 131 -69 257 -137
127 -68 266 -143 310 -166 l79 -43 71 39 c38 20 185 99 325 175 140 76 260
142 267 149 7 6 14 22 17 36 3 14 19 81 36 150 17 69 33 134 35 145 2 11 18
76 35 145 18 69 34 134 36 145 2 11 13 54 24 95 12 41 23 89 26 105 3 17 9 42
14 57 6 20 5 27 -8 32 -10 3 -24 10 -32 16 -8 5 -51 26 -95 46 -141 64 -306
141 -465 217 -52 25 -139 66 -192 91 l-98 45 -1 98 c-1 54 0 107 0 119 2 23
-15 33 -119 74 -30 12 -59 25 -65 29 -5 5 -19 11 -30 13 -11 3 -36 13 -55 21
-32 14 -39 13 -80 -3z"/>
<path d="M843 599 c-51 -15 -101 -73 -109 -127 -28 -187 230 -262 307 -88 37
86 -5 179 -98 212 -44 15 -56 16 -100 3z"/>
<path d="M1856 595 c-67 -24 -108 -80 -108 -150 0 -54 22 -96 68 -131 29 -22
46 -27 96 -28 41 -1 63 3 66 12 2 7 7 10 11 7 5 -2 22 11 39 29 84 93 45 233
-73 265 -49 13 -51 13 -99 -4z"/>
<path d="M1335 353 c-72 -38 -100 -88 -93 -164 6 -63 31 -97 91 -128 38 -19
56 -22 93 -16 96 14 161 119 131 210 -30 91 -142 141 -222 98z"/>
</g>
</svg>
